<svg width="1316" height="1370" viewBox="0 0 1316 1370" fill="none" xmlns="http://www.w3.org/2000/svg">
<path opacity="0.02" d="M91.1527 209.113C-30.8096 119.973 -6.86781 14.6839 20.3484 -26.8181L394.421 -674.73L2623.78 612.391L2249.71 1260.3C2227.37 1304.62 2148.16 1378 2009.98 1316.95C1837.26 1240.63 1806.18 1304.61 1752.56 1339.97C1698.95 1375.34 1630.68 1402.24 1514.33 1282.4C1397.99 1162.57 1269.37 1070.75 1111.31 1104.33C984.872 1131.2 899.436 1093.19 869.824 1076.09C840.211 1058.99 764.573 1004.01 724.618 881.076C674.675 727.408 530.851 661.926 368.895 621.084C206.939 580.243 196.107 507.671 199.922 443.556C203.738 379.442 243.605 320.538 91.1527 209.113Z" fill="black"/>
</svg>
